PathFileType	4	(X/Y/Z)	Patient4_TMGait_0pt6_01_right_12.trc.trc
DataRate	CameraRate	NumFrames	NumMarkers	Units	OrigDataRate	OrigDataStartFrame	OrigNumFrames
80.459770114943	80.459770114943	4	33	mm	80.459770114943	18	       141
Frame#	Time	Sacral			L.Shoulder			Chest			R.Shoulder			Neck			R.ASIS			L.ASIS			R.Thigh.Superior			R.Thigh.Lateral			R.Thigh.Inferior			R.Patella			L.Thigh.Superior			L.Thigh.Lateral			L.Thigh.Inferior			L.Patella			L.Shank.Superior			L.Shank.Lateral			L.Shank.Inferior			R.Shank.Superior			R.Shank.Lateral			R.Shank.Inferior			R.Heel			R.Midfoot.Superior			R.Midfoot.Lateral			R.Toe			L.Heel			L.Midfoot.Lateral			L.Midfoot.Superior			L.Toe			L.Elbow			L.Wrist			R.Elbow			R.Wrist			
		X1	Y1	Z1	X2	Y2	Z2	X3	Y3	Z3	X4	Y4	Z4	X5	Y5	Z5	X6	Y6	Z6	X7	Y7	Z7	X8	Y8	Z8	X9	Y9	Z9	X10	Y10	Z10	X11	Y11	Z11	X12	Y12	Z12	X13	Y13	Z13	X14	Y14	Z14	X15	Y15	Z15	X16	Y16	Z16	X17	Y17	Z17	X18	Y18	Z18	X19	Y19	Z19	X20	Y20	Z20	X21	Y21	Z21	X22	Y22	Z22	X23	Y23	Z23	X24	Y24	Z24	X25	Y25	Z25	X26	Y26	Z26	X27	Y27	Z27	X28	Y28	Z28	X29	Y29	Z29	X30	Y30	Z30	X31	Y31	Z31	X32	Y32	Z32	X33	Y33	Z33	

18	14.151285714286	668.444375671398	1006.328638667423	445.542534881040	855.254226280500	1441.642354163062	285.877274101644	947.666369914554	1367.066460717943	449.932972946048	852.836055824467	1432.867497997985	619.727333712493	825.371914401863	1495.509158532784	440.953899683493	889.620231493135	945.692966813657	576.107410398931	891.413315204147	963.011623680547	301.552491215002	968.384279278993	772.534316925218	545.359456595144	925.722713379563	650.668801431940	615.856016825147	1012.179492273181	613.795621750782	533.696376092087	1046.556457335667	526.724819489611	550.192434998479	901.542342383107	733.903673858546	335.644872143046	789.323910147150	636.415173795828	269.156236809038	847.186850361330	545.691999256157	338.650367005202	832.759595923285	480.293859580420	348.746239364844	804.183306617261	412.526311703891	340.342849759853	708.447339186608	302.482217026898	293.658720386326	752.265730547793	190.648417161159	367.246711662264	1022.368847976875	436.735451911306	558.511461921734	961.217645726731	327.997934703512	623.436962009466	1018.232257554848	236.128415666727	567.470547012695	906.475841095422	56.561898231347	541.138187473140	1073.331579320719	119.930651748019	575.185416371238	993.037103050175	47.290513415607	611.760496433082	1197.253078739494	76.953341586209	598.140202624362	618.032677093377	38.229243191033	416.459377232434	686.591749934615	35.342294348763	331.195826792438	772.307228620509	95.968063450702	353.246790032042	898.083484158386	41.366590883759	316.022609579242	923.994123634591	1112.901392337829	132.220178395568	1169.311919092735	1029.131163920327	140.999895942996	707.736567997457	1118.090110462457	719.589229471735	671.970180847743	859.826395326808	727.547135564753	
19	14.163714285714	669.254475126553	1004.979652960830	446.265965244562	855.970807824965	1440.450178076664	287.469483530814	947.845915421217	1365.952189533416	451.823102324003	852.340335067175	1431.728926140338	621.243039448576	825.446655859335	1494.224476644143	442.528247725226	890.105813088970	944.408542528646	577.870308504356	892.449151858548	961.633555578539	303.301161284810	966.999470776265	769.268993576172	547.560550971273	922.520417990472	647.981176282051	617.541026076311	1008.534601208482	610.615151382112	535.214476612089	1042.285565580308	524.964781373175	551.072221982768	900.623415083115	732.187496386489	337.015854936633	787.949290386181	635.493575680190	270.144413646347	844.672689983876	544.304164910183	339.811645199579	829.532700796183	478.871452707873	349.826970063676	800.324807160769	411.305168233455	341.232012391255	703.552396837913	302.294302022954	294.112642050269	745.927807303193	189.957731581378	367.658312096102	1020.725781586253	434.861742415330	559.759628315674	962.571631224755	324.067874812457	624.161677076102	1022.752247006501	233.993790248310	568.077246080992	916.550868858331	51.045429879097	540.636574591491	1081.526525013230	119.178284392099	575.886229460164	1002.939816599299	44.378215660317	611.904617600182	1206.641105311608	79.494302437710	599.693493098081	610.496887607100	38.122355277663	416.468001976277	679.061330474053	35.282483092849	331.220632847923	764.761542010927	95.880952310002	353.405693910008	890.498388350571	41.344610623747	316.054318153594	926.643871782611	1112.495457425197	133.720949172657	1173.650395102210	1035.202363469600	144.042421229892	706.093511642013	1117.537929698720	720.410405818307	669.427609297291	859.448206819215	728.692364132832	
20	14.176142857143	670.296154357319	1003.463887325574	447.294619957471	856.486655219195	1439.153322979426	289.169016231587	948.014941223784	1364.807475838971	453.746651234883	851.915083845116	1430.459881361186	622.888846928231	825.452253056213	1492.847923129253	444.213996894215	890.884026643093	943.000786276044	579.702429775979	893.694985003327	960.200947627566	305.112241077874	966.200925984184	766.102447590505	549.830171400098	919.829853795812	645.257992295803	619.044095732603	1005.625267183819	607.540883955110	536.767963535123	1038.306781328568	522.794636742845	551.921589260661	899.967129949622	730.425348583671	338.404588709299	786.890165477698	634.433152330052	271.329022005267	842.649429407782	542.801650514243	341.070430636685	826.816022802712	477.234427609082	351.059142076362	796.874240521717	409.889274468954	342.260977987110	698.907574405508	302.074120063622	294.674907384916	739.677875012344	189.166578092039	368.109309792966	1018.716745556564	432.579950529312	560.860860225326	962.511762265858	320.390336329439	624.580577709035	1024.957700272678	231.725946858547	568.434436969120	922.646569529785	46.956413772683	539.877899781292	1086.250834054467	118.021590836287	576.319536850819	1008.639728566613	42.106912974172	611.818053532482	1211.930650044996	80.327910640178	600.964107920003	602.942010001145	37.953434431660	416.463004858468	671.534932110109	35.175872349486	331.244880970584	757.218546597328	95.778512235359	353.560370525462	882.937252294738	41.298608034092	316.070148373946	928.964350461638	1111.833959563259	135.466170582274	1177.298843520834	1040.353380615968	147.308390270299	705.379562288646	1116.345704818492	721.370528866107	668.511018653687	858.303282166251	729.828767323173	
21	14.188571428571	671.542407352826	1001.814922078479	448.628840041542	856.814396946918	1437.774609689803	290.973923007390	948.184423728385	1363.652009901287	455.705418581507	851.566123853316	1429.076447013925	624.668494802173	825.404703025298	1491.407435488615	446.007315672391	891.942083893766	941.511294344182	581.606413421005	895.122882658720	958.733354783759	306.990537357216	966.051675621898	763.122099330798	552.151694043758	917.675241978570	642.551698522205	620.318584153095	1003.531767761546	604.636145050684	538.358823982580	1034.737970804718	520.287007850089	552.713364559242	899.639448886281	728.631333179406	339.819309718988	786.164603617441	633.243592081079	272.723990722510	841.169404801699	541.188158429585	342.426107292691	824.684999340885	475.365186799394	352.429813633745	793.869216406872	408.279206015931	343.427789901696	694.531631946962	301.842321272670	295.350859647316	733.523844166614	188.288568818843	368.592141168152	1016.475350467799	429.950120339702	561.768587147134	961.229705804604	316.946209801370	624.717062735491	1025.054257191584	229.262432239030	568.527971058804	924.932661569418	44.084434624810	538.937669556933	1087.757581346528	116.374186643641	576.465212198482	1010.389764931842	40.343765632217	611.555420571032	1213.473341616148	79.419719987349	601.906540428289	595.366160495164	37.747236508506	416.431871401591	664.017007032061	35.026277615770	331.264159685911	749.692814422602	95.661882381199	353.697548143145	875.416008598748	41.221228914196	316.063060100630	930.927025365696	1110.912804890080	137.455966042557	1180.283222519041	1044.534442660479	150.773695213904	705.569806497545	1114.543592641820	722.483890157879	669.206846861963	856.425337760415	730.984844330364	
